<?xml version="1.0" encoding="UTF-8" standalone="no"?>
<svg
   xmlns:osb="http://www.openswatchbook.org/uri/2009/osb"
   xmlns:dc="http://purl.org/dc/elements/1.1/"
   xmlns:cc="http://creativecommons.org/ns#"
   xmlns:rdf="http://www.w3.org/1999/02/22-rdf-syntax-ns#"
   xmlns:svg="http://www.w3.org/2000/svg"
   xmlns="http://www.w3.org/2000/svg"
   xmlns:xlink="http://www.w3.org/1999/xlink"
   xmlns:sodipodi="http://sodipodi.sourceforge.net/DTD/sodipodi-0.dtd"
   xmlns:inkscape="http://www.inkscape.org/namespaces/inkscape"
   sodipodi:docname="gradient_background.svg"
   inkscape:version="1.0 (4035a4fb49, 2020-05-01)"
   inkscape:export-ydpi="32.970001"
   inkscape:export-xdpi="32.970001"
   inkscape:export-filename="C:\Users\mickj\Desktop\bitmap.png"
   id="svg8"
   version="1.1"
   viewBox="0 0 297 210"
   height="210mm"
   width="297mm">
  <defs
     id="defs2">
    <linearGradient
       id="linearGradient3281"
       inkscape:collect="always">
      <stop
         id="stop3277"
         offset="0"
         stop-color="#ff8080"
         stop-opacity="1" />
      <stop
         id="stop3279"
         offset="1"
         stop-color="#5fd3bc"
         stop-opacity="1" />
    </linearGradient>
    <inkscape:path-effect
       lpeversion="1"
       is_visible="true"
       id="path-effect3275"
       effect="spiro" />
    <inkscape:path-effect
       lpeversion="1"
       is_visible="true"
       id="path-effect3271"
       effect="spiro" />
    <linearGradient
       id="linearGradient3265"
       inkscape:collect="always">
      <stop
         id="stop3261"
         offset="0"
         stop-color="#ff5555"
         stop-opacity="1"/>
      <stop
         id="stop3263"
         offset="1"
         stop-color="#ffdd55"
         stop-opacity="1"/>
    </linearGradient>
    <linearGradient
       osb:paint="solid"
       id="linearGradient3109">
      <stop
         id="stop3107"
         offset="0"
         stop-color="#ff00ff"
         stop-opacity="1"/>
    </linearGradient>
    <inkscape:path-effect
       lpeversion="1"
       is_visible="true"
       id="path-effect959"
       effect="spiro" />
    <inkscape:path-effect
       lpeversion="1"
       is_visible="true"
       id="path-effect955"
       effect="spiro" />
    <inkscape:path-effect
       lpeversion="1"
       is_visible="true"
       id="path-effect951"
       effect="spiro" />
    <inkscape:path-effect
       lpeversion="1"
       is_visible="true"
       id="path-effect947"
       effect="spiro" />
    <inkscape:path-effect
       lpeversion="1"
       is_visible="true"
       id="path-effect943"
       effect="spiro" />
    <inkscape:path-effect
       lpeversion="1"
       is_visible="true"
       id="path-effect939"
       effect="spiro" />
    <inkscape:path-effect
       lpeversion="1"
       is_visible="true"
       id="path-effect935"
       effect="spiro" />
    <inkscape:path-effect
       lpeversion="1"
       is_visible="true"
       id="path-effect931"
       effect="spiro" />
    <inkscape:path-effect
       lpeversion="1"
       is_visible="true"
       id="path-effect927"
       effect="spiro" />
    <inkscape:path-effect
       lpeversion="1"
       is_visible="true"
       id="path-effect923"
       effect="spiro" />
    <inkscape:path-effect
       lpeversion="1"
       is_visible="true"
       id="path-effect919"
       effect="spiro" />
    <inkscape:path-effect
       lpeversion="1"
       is_visible="true"
       id="path-effect915"
       effect="spiro" />
    <inkscape:path-effect
       lpeversion="1"
       is_visible="true"
       id="path-effect911"
       effect="spiro" />
    <inkscape:path-effect
       lpeversion="1"
       is_visible="true"
       id="path-effect907"
       effect="spiro" />
    <inkscape:path-effect
       lpeversion="1"
       is_visible="true"
       id="path-effect903"
       effect="spiro" />
    <inkscape:path-effect
       lpeversion="1"
       is_visible="true"
       id="path-effect899"
       effect="spiro" />
    <inkscape:path-effect
       lpeversion="1"
       is_visible="true"
       id="path-effect895"
       effect="spiro" />
    <inkscape:path-effect
       only_selected="false"
       apply_with_weight="true"
       apply_no_weight="true"
       helper_size="0"
       steps="2"
       weight="33.333333"
       lpeversion="1"
       is_visible="true"
       id="path-effect891"
       effect="bspline" />
    <inkscape:path-effect
       lpeversion="1"
       is_visible="true"
       id="path-effect883"
       effect="spiro" />
    <inkscape:perspective
       id="perspective853"
       inkscape:persp3d-origin="105.00001 : 11.999997 : 1"
       inkscape:vp_z="210.00001 : 61.499994 : 1"
       inkscape:vp_y="0 : 999.99995 : 0"
       inkscape:vp_x="0 : 61.499994 : 1"
       sodipodi:type="inkscape:persp3d" />
    <filter
       height="1.0002395"
       y="-0.00011974274"
       width="1.0002405"
       x="-0.00012025837"
       id="filter1153"
       color-interpolation-filters="sRGB"
       inkscape:collect="always">
      <feGaussianBlur
         id="feGaussianBlur1155"
         stdDeviation="0.012555304"
         inkscape:collect="always" />
    </filter>
    <linearGradient
       gradientUnits="userSpaceOnUse"
       y2="219.60417"
       x2="312.20834"
       y1="36.285713"
       x1="104.6994"
       id="linearGradient3267"
       xlink:href="#linearGradient3265"
       inkscape:collect="always" />
    <linearGradient
       gradientUnits="userSpaceOnUse"
       y2="207.13095"
       x2="192.76785"
       y1="135.31548"
       x1="-2.2678564"
       id="linearGradient3283"
       xlink:href="#linearGradient3281"
       inkscape:collect="always" />
  </defs>
  <sodipodi:namedview
     inkscape:window-maximized="1"
     inkscape:window-y="72"
     inkscape:window-x="1912"
     inkscape:window-height="1017"
     inkscape:window-width="1920"
     showgrid="false"
     inkscape:document-rotation="0"
     inkscape:current-layer="layer1"
     inkscape:document-units="mm"
     inkscape:cy="526.08981"
     inkscape:cx="569.3113"
     inkscape:zoom="0.7"
     inkscape:pageshadow="2"
     inkscape:pageopacity="0.0"
     borderopacity="1.0"
     bordercolor="#666666"
     pagecolor="#ffffff"
     id="base" />
  <metadata
     id="metadata5">
    <rdf:RDF>
      <cc:Work
         rdf:about="">
        <dc:format>image/svg+xml</dc:format>
        <dc:type
           rdf:resource="http://purl.org/dc/dcmitype/StillImage" />
        <dc:title></dc:title>
      </cc:Work>
    </rdf:RDF>
  </metadata>
  <g
     id="layer1"
     inkscape:groupmode="layer"
     inkscape:label="Layer 1">
    <path
       inkscape:original-d="m 109.23512,-3.0238094 c -37.041934,4.5354496 2.01614,52.4129634 3.02381,78.6190474 1.00767,26.206082 77.86336,7.307802 116.79464,10.961309 38.93127,3.653504 2.52011,60.224473 3.77976,90.336313 1.25966,30.11183 52.41295,25.95463 78.61906,38.93154 26.20608,12.97692 4.78795,-30.99378 7.18153,-46.49107 2.39358,-15.49729 -3.02355,-116.416399 -4.5357,-174.6249966 -1.51217,-58.2085974 -62.49181,-7.5592594 -93.7381,-11.3392854 -31.2463,-3.780027 -74.08307,9.0716928 -111.125,13.6071426 z"
       inkscape:path-effect="#path-effect959"
       id="path957"
       d="M 109.23512,-3.0238094 C 97.273227,6.8064228 89.546834,21.962398 89.771833,37.443668 c 0.1125,7.740635 2.168626,15.464459 6.054826,22.159797 3.886199,6.695337 9.608091,12.336556 16.432271,15.991773 8.92179,4.778754 19.36594,6.049178 29.47354,5.528336 10.1076,-0.520842 20.03887,-2.731618 29.99599,-4.545623 9.95713,-1.814005 20.11338,-3.240217 30.17804,-2.173646 10.06466,1.066571 20.1384,4.850637 27.14707,12.152242 5.40619,5.632141 8.70689,13.064497 10.20058,20.727183 1.49369,7.66268 1.26508,15.57344 0.29445,23.31978 -1.94127,15.49267 -6.82057,30.67588 -6.71527,46.28935 0.0661,9.8074 2.15844,19.65889 6.59757,28.40438 4.43913,8.7455 11.2749,16.34542 19.79293,21.20678 8.51802,4.86135 18.72542,6.88189 28.36855,5.09316 9.64313,-1.78874 18.60189,-7.49379 23.86001,-15.77278 4.2611,-6.70917 5.99562,-14.73488 6.61808,-22.65842 0.62246,-7.92354 0.21015,-15.89255 0.56345,-23.83265 1.37027,-30.79563 14.11803,-59.88365 19.42403,-90.24967 2.653,-15.183009 3.41477,-30.911315 -0.058,-45.928038 C 334.52716,18.138899 326.51962,3.8336329 314.09822,-5.2916666 301.15223,-14.802355 284.56605,-18.010415 268.50684,-18.40245 c -16.05921,-0.392034 -32.08273,1.761982 -48.14672,1.771498 -19.12331,0.01133 -38.16412,-3.015789 -57.28571,-2.75889 -9.56079,0.128449 -19.1566,1.088871 -28.37703,3.620466 -9.22043,2.531594 -18.07505,6.6747874 -25.46226,12.7455666 z"
       fill="url(#linearGradient3267)"
       stroke="#000000"
       stroke-width="0.264583px"
       stroke-linecap="butt"
       stroke-linejoin="miter"
       stroke-opacity="1"
       fill-opacity="1"
       opacity="1"
       filter="url(#filter1153)"/>

    <path
       inkscape:original-d="m -17.386905,106.58928 c -4.283994,-40.443712 56.948677,49.64114 85.422619,74.46131 28.47394,24.82018 70.807806,2.01614 106.211306,3.02381 35.40351,1.00767 24.94669,37.29392 37.41964,55.94048 C 224.13961,258.66144 67.532011,231.95165 -4.5357142,227.91964 -76.603438,223.88763 -13.10291,147.033 -17.386905,106.58928 Z"
       inkscape:path-effect="#path-effect3275"
       id="path3273"
       d="m -17.386905,106.58928 c 9.7854198,-0.54711 19.4457116,3.36004 27.2657972,9.26766 7.8200858,5.90763 13.9962518,13.71196 19.5533188,21.78493 5.557067,8.07297 10.595612,16.51576 16.633883,24.23542 6.038271,7.71965 13.206074,14.78536 21.96962,19.1733 8.029664,4.02048 17.099829,5.63243 26.078053,5.80935 8.978223,0.17692 17.922763,-1.02998 26.798523,-2.39406 8.87575,-1.36408 17.74907,-2.89055 26.71672,-3.36069 8.96765,-0.47014 18.09404,0.144 26.61801,2.96921 11.43632,3.79049 21.47008,11.58931 28.11809,21.63725 6.64801,10.04794 9.89796,22.26988 9.30155,34.30323 -0.56613,11.42245 -4.54479,22.59956 -10.98479,32.05045 -6.43999,9.4509 -15.29359,17.18364 -25.33063,22.66551 -20.07407,10.96374 -44.3722,12.6811 -66.70363,7.73345 C 86.316181,297.51664 65.772024,286.3156 47.323893,272.79382 28.875762,259.27205 12.300731,243.40208 -4.5357142,227.91964 -14.176603,219.05408 -23.954942,210.26565 -32.376176,200.23431 c -8.421235,-10.03133 -15.502816,-21.43649 -18.933493,-34.07672 -3.430676,-12.64022 -2.961316,-26.62647 3.002383,-38.28748 2.98185,-5.8305 7.302065,-11.0027 12.65089,-14.7811 5.348825,-3.7784 11.730946,-6.13415 18.269491,-6.49973 z"
       fill="url(#linearGradient3283)"
       stroke="#000000"
       stroke-width="0.264583px"
       stroke-linecap="butt"
       stroke-linejoin="miter"
       stroke-opacity="1"
       fill-opacity="1"/>
  </g>
</svg>
